<mxfile host="app.diagrams.net" modified="2023-08-04T01:48:45.629Z" agent="Mozilla/5.0 (Windows NT 10.0; Win64; x64) AppleWebKit/537.36 (KHTML, like Gecko) Chrome/114.0.0.0 Safari/537.36 OPR/100.0.0.0" version="21.6.6" etag="Hl5LoeeKiCS7PekAed0Z" type="github">
  <diagram name="PÃ¡gina-1" id="FJtYoOV1P1ksL1_rRhqh">
    <mxGraphModel>
      <root>
        <mxCell id="0" />
        <mxCell id="1" parent="0" />
      </root>
    </mxGraphModel>
  </diagram>
</mxfile>
